# xmcd CD database file
#
# Track frame offsets:
#	150
#	20098
#	39902
#	59825
#
# Disc length: 1053 seconds
#
# Revision: 2
# Processed by: cddbd v1.5.2PL0 Copyright (c) Steve Scherf et al.
# Submitted via: CDex 1.70beta2
#
DISCID=32041b04
DTITLE=mihimaru GT - I SHOULD BE SO LUCKY
DYEAR=2007
DGENRE=J-Pop
TTITLE0=I SHOULD BE SO LUCKY
TTITLE1=諢帙さ繝医ヰ
TTITLE2=I SHOULD BE SO LUCKY (instrumental)
TTITLE3=諢帙さ繝医ヰ (instrumental)
EXTD=YEAR: 2007
EXTT0=
EXTT1=
EXTT2=
EXTT3=
PLAYORDER=
